# xmcd
# Copyright (c) 1998 CDDB Inc.
#
# Track frame offsets:
#	150
#	14034
#	25856
#	35719
#	47134
#	61387
#	75087
#	85706
#	94618
#	108966
#	121223
#	136601
#
# Disc length: 1972 seconds
#
# Revision: 0
# Processed by: cddbd v1.5.1PL2 Copyright (c) Steve Scherf et al.
# Submitted via: audiograbber 1.70
#
DISCID=8907b20c
DTITLE=Various Artist - Aussie Truckin' Songs
DYEAR=1900
DGENRE=
TTITLE0=Jim Welsh - Lights On The Hill
TTITLE1=Nev Nicolls - Two Beers Away
TTITLE2=Wayfarers - Rolling And Roaring Through The Night
TTITLE3=Dave Reynolds - Old Queensland Special
TTITLE4=John McSweeney - Moving Kind
TTITLE5=Dave Reynolds - Highway Fever
TTITLE6=Wayfarers - Danger, Road Train
TTITLE7=Nev Nicolls - Men Who Dare To Drive The Interstate
TTITLE8=John McSweeney - My Diesel Friend
TTITLE9=Jim Welsh - Home Cooking
TTITLE10=Wayfarers - Road Train Blues
TTITLE11=Dave Reynolds - It's A Trucking Life
EXTD=
EXTT0=
EXTT1=
EXTT2=
EXTT3=
EXTT4=
EXTT5=
EXTT6=
EXTT7=
EXTT8=
EXTT9=
EXTT10=
EXTT11=
PLAYORDER=
